<svg width="58" height="56" viewBox="0 0 58 56" fill="none" xmlns="http://www.w3.org/2000/svg">
<rect width="57.1311" height="55.9906" rx="18" fill="#1F0954"/>
<path d="M46.9955 36.9422L41.9405 39.5685C41.9361 39.5327 41.9266 39.4977 41.9124 39.4644L40.7891 36.6738H46.9337C47.2511 36.6738 47.282 36.7943 46.9955 36.9422Z" fill="white"/>
<path d="M41.2576 39.9198L41.221 39.9389C41.1693 39.9661 41.1133 39.9846 41.0553 39.9937H40.9851H34.3799C34.2076 39.9852 34.0409 39.9313 33.8974 39.8377C33.754 39.7442 33.6393 39.6146 33.5655 39.4626L31.8243 35.4245C31.7675 35.2707 31.759 35.1038 31.8001 34.9453C31.8411 34.7868 31.9297 34.6438 32.0546 34.5347L36.9692 30.6499C37.2219 30.4528 37.163 30.2885 36.84 30.2885H30.2038C30.0309 30.2825 29.863 30.23 29.7188 30.1367C29.5745 30.0435 29.4596 29.9131 29.3866 29.7601L27.9375 26.401L28.2183 25.7603L32.1332 16.6191L40.2353 36.6729L41.3587 39.4626C41.399 39.5384 41.411 39.6255 41.3925 39.7089C41.3741 39.7924 41.3263 39.8669 41.2576 39.9198V39.9198Z" fill="white"/>
<path d="M31.686 16.5264L27.6982 25.8346L21.9214 39.3343C21.8466 39.4861 21.7312 39.6156 21.5874 39.709C21.4436 39.8025 21.2767 39.8565 21.1042 39.8654H14.454C14.3841 39.8752 14.3128 39.8655 14.2483 39.8374C14.1839 39.8093 14.1289 39.7639 14.0898 39.7066C14.0507 39.6493 14.0291 39.5824 14.0274 39.5136C14.0258 39.4448 14.0442 39.3769 14.0804 39.3179L23.2806 16.5182C23.3362 16.3982 23.4176 16.2914 23.5194 16.2049C23.6212 16.1185 23.7409 16.0544 23.8704 16.0172H23.8985C23.9316 16.0082 23.9654 16.0018 23.9996 15.998H31.335H31.4136C31.4742 16.0033 31.5323 16.0235 31.5826 16.0568C31.6329 16.0901 31.6736 16.1353 31.7009 16.1882C31.7281 16.2412 31.7411 16.3 31.7385 16.3592C31.7359 16.4184 31.7179 16.476 31.686 16.5264V16.5264Z" fill="white"/>
<path d="M30.2413 30.7451C30.1743 30.7366 30.1062 30.7468 30.0449 30.7744C29.9835 30.802 29.9313 30.8459 29.8944 30.9011C29.8575 30.9562 29.8372 31.0204 29.836 31.0863C29.8348 31.1521 29.8526 31.217 29.8875 31.2734L31.0108 33.8113C31.036 33.877 31.077 33.9359 31.1302 33.9831C31.1835 34.0302 31.2475 34.0644 31.317 34.0826C31.3865 34.1008 31.4594 34.1025 31.5297 34.0877C31.6001 34.073 31.6658 34.042 31.7214 33.9975L35.8131 31.0845C36.0743 30.8984 36.0238 30.7451 35.698 30.7451H30.2413Z" fill="white"/>
</svg>
